<?xml version="1.0" encoding="UTF-8"?>
<svg id="Layer_1" data-name="Layer 1" xmlns="http://www.w3.org/2000/svg" viewBox="0 0 2825.62 1244.32">
  <defs>
    <style>
      .cls-1 {
        fill: #333;
      }
    </style>
  </defs>
  <polygon class="cls-1" points="1462.01 .08 1107.82 .08 1284.05 317.99 1462.01 .08"/>
  <polygon class="cls-1" points="407.86 290.34 842.79 290.34 649.79 0 0 0 0 1244.32 407.86 1244.32 407.86 807.08 904.71 807.08 1047.29 597.97 993.29 516.74 407.86 516.74 407.86 290.34"/>
  <polygon class="cls-1" points="1064.61 1244.24 1465.47 1244.24 1265.04 895.22 1064.61 1244.24"/>
  <polygon class="cls-1" points="2435.04 0 2435.04 395.76 2450.6 679.19 2006.44 0 1920.04 0 1500.08 597.97 1923.49 1244.32 2015.09 1244.32 2015.09 850.29 1999.53 566.86 2443.69 1244.32 2825.62 1244.32 2825.62 0 2435.04 0"/>
</svg>