<svg xmlns="http://www.w3.org/2000/svg" viewBox="0 0 48 48" width="480" height="480" role="img" aria-labelledby="laravel-title">
  <title id="laravel-title">Laravel</title>
  <path fill="#ff2d20" d="M8 8.8l12.2 7.1v13.9L8 22.9V8.8zm2.8 4.9v7.6l6.6 3.8v-7.6l-6.6-3.8z"/>
  <path fill="#ff2d20" d="M22.6 16L35 8.8l5 2.9v14.1l-12.4 7.1-5-2.9V16zm5 3.3v8.7l9.6-5.5v-8.7l-9.6 5.5z"/>
  <path fill="#ff2d20" d="M20.2 32.4l7.4 4.3 9.7-5.6 2.7 1.6-12.4 7.1-12.3-7.1 4.9-2.9v2.6z"/>
  <path fill="#ffffff" d="M22.6 16l5 2.9v14.2l-5-2.9V16z" opacity=".72"/>
</svg>
