<svg xmlns="http://www.w3.org/2000/svg" viewBox="0 0 48 48" width="480" height="480" role="img" aria-labelledby="php-title">
  <title id="php-title">PHP</title>
  <ellipse cx="24" cy="24" rx="21" ry="13" fill="#777bb4"/>
  <ellipse cx="24" cy="24" rx="18" ry="10.5" fill="none" stroke="#ffffff" stroke-width="1.6" opacity=".65"/>
  <path fill="#ffffff" d="M10.2 30.5l2.2-13h6.1c3.1 0 4.9 1.5 4.4 4.3-.5 2.9-2.8 4.5-5.9 4.5h-2.8l-.7 4.2h-3.3zm4.5-6.9h2.4c1.4 0 2.3-.6 2.5-1.8.2-1.1-.4-1.7-1.9-1.7h-2.4l-.6 3.5zm8.1 6.9l2.2-13h3.3l-.8 4.6h4.1l.8-4.6h3.3l-2.2 13h-3.3l.9-5.4H27l-.9 5.4h-3.3zm12.6 0l2.2-13h5.8c3.1 0 4.8 1.5 4.3 4.3-.5 2.9-2.7 4.5-5.9 4.5h-2.5l-.7 4.2h-3.2zm4.4-6.9H42c1.4 0 2.2-.6 2.4-1.8.2-1.1-.4-1.7-1.8-1.7h-2.2l-.6 3.5z"/>
</svg>
